<svg xmlns="http://www.w3.org/2000/svg" width="60" height="60" viewBox="0 0 60 60">
  <g id="handshake-violet-light" transform="translate(-0.001 -0.002)">
    <path id="Path_8709" data-name="Path 8709" d="M31.831,2.08A29.751,29.751,0,1,0,61.581,31.831,29.751,29.751,0,0,0,31.831,2.08Zm0,54.542A24.79,24.79,0,1,1,52.259,17.785l-8.616,4.542a38.375,38.375,0,0,1-5.195-1.484c-1.783-.755-3.385-1.9-4.453-1.992s-3.229,1.093-4.075,1.367-5.77.808-5.77.808L16.143,36.375a2,2,0,0,0-.118,2.682,2.034,2.034,0,0,0,2.58.69s-1.2,1.12.419,2.838a2.238,2.238,0,0,0,3.114.169,1.761,1.761,0,0,0,.494,2.665c1.726,1.02,2.656.1,2.656.1s-.622.858.547,2.161c.9,1,2.761,1.075,4.577-.781,4.918-5.032,11.641-5.423,16.067-8.328,3.194-2.1,4.015-3.458,10.126-5.941A24.791,24.791,0,0,1,31.828,56.621Z" transform="translate(-1.829 -1.829)" fill="#9f7ba8"/>
    <path id="Path_8710" data-name="Path 8710" d="M76.488,138.951a8.431,8.431,0,0,1-7.194-6.858,11.559,11.559,0,0,1-2.941.04c-3.241,6.969-6.663,3.934-6.807,2.983a12.894,12.894,0,0,0,1.484-5.693c.325-3.088,2.551-1.863,6.092-3.465-14.649-.477-11.544.257-18.312-3.5a24.7,24.7,0,0,0-5.27,14.479c2.02.814,4.938,2.01,5.551,2.372a36.971,36.971,0,0,1,3.533,3.009c2.7-2.814,5.8-.5,3.972,2.033,2.528-2.1,5.173.029,4.04,2.257,2.188-1.006,3.969.945,2.394,3.36,1.173-1.088,3.211-.4,2.527,1.983,0,0,4.158,3.312,5.821.58,0,0,2.846.856,4.32-1.466,1.279.768,4.246.046,3.794-2.624,0,0,2.328.426,2.922-1.15.937-2.485-.221-1.274-5.924-8.34Z" transform="translate(-38.317 -107.771)" fill="#fff"/>
    <path id="Path_8711" data-name="Path 8711" d="M30.765,4.965a25.048,25.048,0,1,0,24.273,25.8,25.077,25.077,0,0,0-24.273-25.8Zm-.016.494A24.527,24.527,0,0,1,49.964,15.726c-1,.534-6.568,3.5-8.267,4.4a31.953,31.953,0,0,1-7.344-2.612c-3.088-1.51-4.076-.408-5.713.288-1.246.014-7.6-.056-9.775-.215a11.772,11.772,0,0,1-3.232-.6A35.9,35.9,0,0,1,10.9,14.584,24.525,24.525,0,0,1,30.748,5.459Zm-8.792,19a20.543,20.543,0,0,0-1.111,2.9A2.864,2.864,0,0,0,24.46,29c1.6-.5,2.975-2.3,3.781-4.224a9.421,9.421,0,0,0,2.417-.065,8.071,8.071,0,0,0,7.05,6.7c1.909,1.982,4.3,4.566,5.9,6.222.894.929.109,3.031-2.03,2.676-1.895-.314-5.254-3.762-7.73-7.547a.375.375,0,0,0-.644.384c.983,1.651,4.909,6.668,7.576,7.708.306,1.534-1.193,2.749-2.908,2.179-2.6-.864-6.113-4.7-6.751-5.437-.276-.318-.947.029-.546.511,1.105,1.328,4.513,4.531,6.222,5.287a2.962,2.962,0,0,1-3.229,1.012c-2.629-.6-5.312-3.433-5.927-4.284-.257-.356-.925.013-.56.469a14.967,14.967,0,0,0,5.5,4.27c-1.088,1.586-4.117-.36-4.937-.9a1.839,1.839,0,0,0-.484-2.119,1.7,1.7,0,0,0-1.628-.458,1.912,1.912,0,0,0-.316-2.608,2.039,2.039,0,0,0-2.446-.4,1.9,1.9,0,0,0-.41-2.251,2.7,2.7,0,0,0-3.368-.278,1.94,1.94,0,0,0-.288-2.207c-1.5-1.669-3.539-.442-4.36.469-2.354-2.189-2.459-2.384-4.478-3.331-1.386-.649-3.317-1.525-4.382-2.006a24.409,24.409,0,0,1,4.985-13.628c5,2.85,5.76,3.016,8.24,3.151,2.816.154,5.738.167,7.9.224-.962.3-1.772.344-2.406.54-.967.3-1.667.954-1.829,2.594a26.768,26.768,0,0,1-.419,2.806Zm.922.439a1.506,1.506,0,0,1,1.85.089c-.149,2.3-1.836,2.284-2.684,1.946a13.777,13.777,0,0,1,.834-2.035Zm-7.22,10.049c.146.215.694.922.914,1.175s.8.641,1.572-.266a8.385,8.385,0,0,1-1.722,1.726,1.129,1.129,0,0,1-1.5.03,2.793,2.793,0,0,1-.763-1.043c-.485-1.07.779-2.108,1.277-2.447a1.046,1.046,0,0,0,.218.827Zm.676-1.087a1.243,1.243,0,0,1,1.489.277,1.021,1.021,0,0,1-.205,1.6.487.487,0,0,1-.8-.09c-.109-.144-.712-.9-.844-1.123-.157-.262.028-.511.359-.662Zm.968,4.36a14.041,14.041,0,0,1,1.745-1.529,1,1,0,0,0-.065,1.217c.164.209.563.664,1.093,1.22a.976.976,0,0,0,1.45-.14,10.331,10.331,0,0,1-1.6,1.654A1.656,1.656,0,0,1,17.5,40.5c-1.08-1.09-.782-1.7-.2-2.28Zm2.634-1.643a1.192,1.192,0,0,1,1.579.089,1.1,1.1,0,0,1,.025,1.548c-.6.772-.87.869-1.256.427-.119-.136-.773-.853-.919-1.062-.247-.355.182-.739.571-1Zm.61,4.939c.307-.3,1.088-1.2,1.308-1.394a.707.707,0,0,0,.265.764c.164.164.748.74.958.937s.707.535,1.367-.109c-.26.33-.71.852-1.1,1.378a1.361,1.361,0,0,1-1.652.512c-.889-.239-2.093-1.151-1.146-2.088Zm2.4-1.98a1.151,1.151,0,0,1,1.566-.128c.557.487.192,1.174-.014,1.469-.545.778-.844.828-1.079.6-.128-.126-.814-.812-1-.989-.289-.277.2-.666.526-.949Zm.92,4.7c.266-.344.857-1.086.857-1.086s.413.31,1.04.8a.637.637,0,0,0,.894.008,2.315,2.315,0,0,0,.391-.511,5.133,5.133,0,0,1-.629,1.832A2.2,2.2,0,0,0,27.3,44.6c.2.145.74.464.74.464a2.948,2.948,0,0,1-3.416.772c-.769-.434-1.02-1.25-.755-1.594Zm1.186-1.47s.19-.233.368-.45a.65.65,0,0,1,.79-.233c.388.18.716.551.446,1.049-.332.612-.524.484-.734.32-.13-.1-.871-.686-.871-.686Zm4.2,11.773a24.58,24.58,0,0,1-23.8-25.007c1.3.582,3.257,1.47,4.511,2.089a7.009,7.009,0,0,1,2.2,1.484c.685.64,1.2,1.087,1.69,1.543a2.2,2.2,0,0,0,.091,2.988,1.927,1.927,0,0,0,2.237.878,2.3,2.3,0,0,0,.872,2.569,2.288,2.288,0,0,0,2.52.584,1.856,1.856,0,0,0,1.118,2.28,2.574,2.574,0,0,0,2.32.3A2.247,2.247,0,0,0,24.4,46.532a3.681,3.681,0,0,0,4.312-1.1c2.644,1.392,3.971.64,4.614-.332A3.713,3.713,0,0,0,37.5,43.685c2.724.863,4.168-1.138,4.058-2.62,3.2.306,3.822-3.059,2.768-3.742a27.244,27.244,0,0,0,4.522-3.154,7.624,7.624,0,0,1,1.943-1.289c.593-.287,2.545-1.2,3.738-1.768a24.58,24.58,0,0,1-25.275,23.43ZM54.551,30.3c-4.776,2.22-4.962,2.178-6.554,3.613a24.956,24.956,0,0,1-4.218,2.858l-4.993-5.286a6.736,6.736,0,0,0,2.59-.631c-3.95.26-5.916-.64-7.374-1.946a7.3,7.3,0,0,1-2.653-5.111,8.667,8.667,0,0,1-3.564.2c-.85,2.213-2.04,3.637-3.274,4.2a2.076,2.076,0,0,1-2.862-.882c1.59.755,3.451.161,3.59-2.454a1.935,1.935,0,0,0-2.506-.434c.181-.988.268-1.787.39-2.788.19-1.547.853-1.783,1.864-1.979a15.753,15.753,0,0,0,4.595-1.483c2-1.139,3.2-.594,4.687.136a33.153,33.153,0,0,0,7.552,2.617l8.57-4.579A24.419,24.419,0,0,1,54.554,30.3ZM30.916.016a30,30,0,1,0,29.071,30.9A30,30,0,0,0,30.916.016ZM59.492,30.9A29.5,29.5,0,1,1,30.9.51,29.5,29.5,0,0,1,59.492,30.9Z" transform="translate(0 0)" fill="#4c4c4c"/>
  </g>
</svg>
